<?xml version="1.0" encoding="utf-8"?>
<!-- Generator: Adobe Illustrator 23.1.1, SVG Export Plug-In . SVG Version: 6.00 Build 0)  -->
<svg version="1.1" id="Layer_1" xmlns="http://www.w3.org/2000/svg" xmlns:xlink="http://www.w3.org/1999/xlink" x="0px" y="0px"
	 viewBox="0 0 277.9 75.3" style="enable-background:new 0 0 277.9 75.3;" xml:space="preserve">
<style type="text/css">
	.st0{fill:none;stroke:#E5E5E5;stroke-width:2;stroke-linecap:round;stroke-linejoin:round;}
	.st1{fill:#1A1A1A;stroke:#E5E5E5;stroke-miterlimit:10;}
	.st2{fill:#FFFFFF;}
	.st3{fill:#2E91F8;stroke:#2E91F8;stroke-miterlimit:10;}
	.st4{fill:#2E91F8;}
</style>
<title>banner-light-plus</title>
<path class="st0" d="M54.4,57.9C49,63.8,43.2,69.2,37,74.3c-6.1-5.1-12-10.6-17.4-16.4H54.4z"/>
<path class="st0" d="M68.6,32.8c0.3,4.2-2,9.3-5.6,14.5v-2.7H11v2.7C7.5,42.1,5.1,37,5.5,32.8c0-0.2,0-7.7-0.1-15.3
	c8.3,0,15-7.4,14.9-16.5h33.3c0,9.1,6.7,16.5,14.9,16.5C68.6,25.1,68.6,32.6,68.6,32.8z"/>
<polygon class="st0" points="15.6,57.9 15.6,64 1,64 4.5,57.9 1,51.9 11.1,51.9 11.1,57.9 "/>
<polygon class="st0" points="69.6,57.9 73.1,64 58.5,64 58.5,57.9 63,57.9 63,51.9 73.1,51.9 "/>
<rect x="11.1" y="44.7" class="st0" width="52" height="13.2"/>
<path class="st1" d="M48.5,41.3H25.6c-1.1,0-1.9-0.9-1.9-1.9V6.6c0-1.1,0.9-2,1.9-2h22.9c1.1,0,1.9,0.9,1.9,2v32.7
	C50.4,40.4,49.5,41.2,48.5,41.3z M25.6,5.6c-0.6,0-1,0.4-1,1v32.8c0,0.6,0.4,1,1,1h22.9c0.6,0,1-0.4,1-1V6.6c0-0.6-0.4-1-1-1
	L25.6,5.6z"/>
<path class="st1" d="M46.4,14.5H27.7c-0.2,0-0.4-0.2-0.4-0.4c0,0,0,0,0,0V8.7c0-0.2,0.2-0.4,0.4-0.4c0,0,0,0,0,0h18.6
	c0.2,0,0.4,0.2,0.4,0.4c0,0,0,0,0,0V14C46.8,14.3,46.6,14.5,46.4,14.5C46.4,14.5,46.4,14.5,46.4,14.5z M28.2,13.7h17.7V9.2H28.2
	V13.7z"/>
<path class="st1" d="M47,38.3H27c-0.2,0-0.4-0.2-0.4-0.4c0,0,0,0,0,0V17.8c0-0.2,0.2-0.4,0.4-0.4c0,0,0,0,0,0h20
	c0.2,0,0.4,0.2,0.4,0.4c0,0,0,0,0,0v20.1C47.5,38.1,47.3,38.3,47,38.3L47,38.3z M27.4,37.4h19.2V18.2H27.4V37.4z"/>
<path class="st1" d="M44.2,23.3h-3.8c-0.2,0-0.4-0.2-0.4-0.4c0,0,0,0,0,0c0-0.2,0.2-0.4,0.4-0.4c0,0,0,0,0,0h3.8
	c0.2,0,0.4,0.2,0.4,0.4c0,0,0,0,0,0C44.6,23.1,44.4,23.3,44.2,23.3L44.2,23.3z"/>
<path class="st1" d="M33.7,23.3h-3.8c-0.2,0-0.4-0.2-0.4-0.4c0,0,0,0,0,0c0-0.2,0.2-0.4,0.4-0.4c0,0,0,0,0,0h3.8
	c0.2,0,0.4,0.2,0.4,0.4c0,0,0,0,0,0C34.2,23.1,34,23.3,33.7,23.3C33.8,23.3,33.7,23.3,33.7,23.3z"/>
<path class="st1" d="M31.8,25.2c-0.2,0-0.4-0.2-0.4-0.4c0,0,0,0,0,0v-3.8c0-0.2,0.2-0.4,0.4-0.4c0.2,0,0.4,0.2,0.4,0.4v3.8
	C32.3,25,32.1,25.2,31.8,25.2C31.9,25.2,31.8,25.2,31.8,25.2z"/>
<path class="st1" d="M33.2,34.9c-0.1,0-0.2,0-0.3-0.1l-2.7-2.7c-0.2-0.2-0.2-0.4,0-0.6c0,0,0,0,0,0c0.2-0.2,0.4-0.2,0.6,0
	c0,0,0,0,0,0l2.7,2.7c0.2,0.2,0.2,0.4,0,0.6c0,0,0,0,0,0C33.4,34.9,33.3,34.9,33.2,34.9z"/>
<path class="st1" d="M30.5,34.9c-0.1,0-0.2,0-0.3-0.1c-0.2-0.2-0.2-0.4,0-0.6c0,0,0,0,0,0l2.7-2.7c0.2-0.2,0.5-0.1,0.6,0.1
	c0.1,0.2,0.1,0.4,0,0.6l-2.7,2.7C30.7,34.9,30.6,34.9,30.5,34.9z"/>
<path class="st1" d="M43.7,33.6h-3.8c-0.2,0-0.4-0.2-0.4-0.4s0.2-0.4,0.4-0.4l0,0h3.8c0.2,0,0.4,0.2,0.4,0.4c0,0,0,0,0,0
	C44.2,33.3,44,33.5,43.7,33.6C43.8,33.6,43.8,33.6,43.7,33.6z"/>
<path class="st1" d="M41.9,31.9c0.2,0,0.3-0.1,0.4-0.2c0.2-0.2,0.2-0.6,0-0.8s-0.6-0.2-0.8,0c-0.2,0.2-0.2,0.6,0,0.8
	C41.6,31.8,41.7,31.9,41.9,31.9L41.9,31.9z"/>
<path class="st1" d="M41.5,34.7c-0.2,0.2-0.2,0.6,0,0.8c0.2,0.2,0.6,0.2,0.8,0c0.2-0.2,0.2-0.6,0-0.8C42.1,34.4,41.7,34.4,41.5,34.7
	z"/>
<path class="st1" d="M47,28.2H27c-0.2,0-0.4-0.2-0.4-0.4c0,0,0,0,0,0c0-0.2,0.2-0.4,0.4-0.4c0,0,0,0,0,0h20c0.2,0,0.4,0.2,0.4,0.4
	c0,0,0,0,0,0C47.5,28,47.3,28.2,47,28.2C47.1,28.2,47,28.2,47,28.2z"/>
<path class="st1" d="M37.2,38.3c-0.2,0-0.4-0.2-0.4-0.4c0,0,0,0,0,0V17.8c0-0.2,0.2-0.4,0.4-0.4c0.2,0,0.4,0.2,0.4,0.4l0,0v20.1
	C37.6,38.1,37.4,38.3,37.2,38.3L37.2,38.3z"/>
<path class="st2" d="M101.1,42.3V44l-1.9,0.4l0.8-4.6h1.9l-0.1,4.5c-1.9,1-4,1.5-6.2,1.5c-6.2,0-10.4-4.5-10.4-10.8
	s4.4-10.8,10.4-10.8c2.1,0,4.1,0.5,5.9,1.5l0.1,4.5h-1.9l-0.8-4.5l1.9,0.4V28c-1.3-1.3-3.1-2.1-5-2.2c-4.2,0-7.5,3.2-7.5,9.2
	s3,9.2,7.3,9.2C97.6,44.3,99.6,43.6,101.1,42.3z"/>
<path class="st2" d="M109.6,37.3c1.6-0.5,3.2-1,4.8-1.3v1.1c-1.4,0.3-2.8,0.7-4.1,1.2c-2.8,1.1-3.1,2.2-3.1,3.1
	c0,1.6,1.1,2.3,2.5,2.3c1.1,0,1.7-0.4,3.6-1.8l0.6-0.5l0.4,0.7l-0.9,0.9c-1.8,1.8-2.9,2.7-4.8,2.7c-2.2,0-4.1-1.3-4.1-3.8
	C104.5,40.2,105.4,38.8,109.6,37.3z M113.1,42.5v-7c0-3-0.9-3.8-2.9-3.8c-1,0-1.9,0.2-2.8,0.6l1.2-1l-0.8,2.6
	c-0.3,0.9-0.7,1.4-1.6,1.4c-0.7,0.1-1.3-0.4-1.4-1.1c0,0,0-0.1,0-0.1c0.6-2.3,2.9-3.8,5.9-3.8s4.7,1.4,4.7,5.3v6.5
	c0,1.4,0.4,1.9,1.1,1.9c0.5,0,0.9-0.3,1.2-0.7l0.6,0.7c-0.5,1-1.5,1.6-2.6,1.6C114.2,45.7,113.1,44.4,113.1,42.5z"/>
<path class="st2" d="M122.1,45.4c0.1-1.4,0.1-4.6,0.1-6.5v-1.5c0-1.7,0-2.6-0.1-3.9l-2.5-0.3v-1.1l4.2-1.8l0.5,0.3l0.4,3.6v4.7
	c0,1.9,0,5.1,0.1,6.5H122.1z M126.9,44.3v1.1h-7.1v-1.1l3.4-0.6h0.6L126.9,44.3z M134,36.1v2.8c0,2,0,5.1,0.1,6.5h-2.6
	c0.1-1.4,0.1-4.5,0.1-6.5v-2.6c0-2.9-0.7-3.8-2.6-3.8c-1.5,0-2.8,0.6-4.5,2.1h-0.6v-1.4h1.6l-1.3,0.6c1.4-2,3.7-3.2,6.1-3.4
	C132.8,30.4,134,32,134,36.1z M133.2,43.7l3.1,0.6v1.1h-7.1v-1.1l3.4-0.6H133.2z"/>
<path class="st2" d="M139.3,32.5l-3-0.5v-1.2h7.4v1.2l-3.8,0.5H139.3z M140.3,30.8l4.8,12.5l-1.3,1.6l5-14.1h1.7l-5.6,14.8h-1.3
	l-6.2-14.8H140.3z M148.7,32.5l-3.1-0.5v-1.2h5.9v1.2l-2.2,0.5H148.7z"/>
<path class="st2" d="M157.8,37.3c1.6-0.5,3.1-1,4.8-1.3v1.1c-1.4,0.3-2.8,0.7-4.1,1.2c-2.8,1.1-3.1,2.2-3.1,3.1
	c0,1.6,1.1,2.3,2.5,2.3c1.1,0,1.7-0.4,3.6-1.8l0.6-0.5l0.4,0.7l-0.9,0.9c-1.9,1.8-2.9,2.7-4.8,2.7c-2.2,0-4.1-1.3-4.1-3.8
	C152.7,40.2,153.6,38.8,157.8,37.3z M161.3,42.5v-7c0-3-0.9-3.8-2.9-3.8c-1,0-1.9,0.2-2.8,0.6l1.2-1l-0.8,2.6
	c-0.3,0.9-0.7,1.4-1.6,1.4c-0.7,0.1-1.3-0.4-1.4-1.1c0,0,0-0.1,0-0.1c0.6-2.3,2.9-3.8,5.9-3.8s4.7,1.4,4.7,5.3v6.5
	c0,1.4,0.4,1.9,1.1,1.9c0.5,0,0.9-0.3,1.2-0.7l0.6,0.7c-0.5,1-1.5,1.6-2.6,1.6C162.4,45.7,161.3,44.4,161.3,42.5z"/>
<path class="st2" d="M168.5,44.6l-0.1-3.3h1.6l0.8,3.6l-1.5-0.7v-1.1c1.1,0.9,2.4,1.3,3.8,1.3c2.4,0,3.5-1,3.5-2.4
	c0-1.4-0.9-2-2.9-2.7l-1.4-0.5c-2.2-0.8-3.7-2-3.7-4.1c0-2.1,1.9-4.3,5.3-4.3c1.5,0,3,0.5,4.3,1.3l-0.1,3.1h-1.5l-0.6-3.1l1.1,0.5
	V33c-0.9-0.7-2-1.2-3.1-1.2c-1.9,0-2.9,0.8-2.9,2.1c0,1.3,0.8,1.9,2.9,2.7l0.9,0.3c3.1,1.1,4.2,2.6,4.2,4.5c0,2.3-2,4.4-5.9,4.4
	C171.5,45.8,169.9,45.4,168.5,44.6z"/>
<path class="st2" d="M197.7,42.3V44l-1.9,0.4l0.8-4.6h1.9l-0.1,4.5c-1.9,1-4,1.5-6.2,1.5c-6.2,0-10.4-4.5-10.4-10.8
	s4.4-10.8,10.4-10.8c2.1,0,4.1,0.5,6,1.5l0.1,4.5h-1.9l-0.8-4.5l1.9,0.4V28c-1.3-1.3-3.1-2.1-5-2.2c-4.2,0-7.5,3.2-7.5,9.2
	s3,9.2,7.3,9.2C194.2,44.3,196.2,43.6,197.7,42.3z"/>
<path class="st2" d="M201,26v-1.2h4.3v1.7H205L201,26z M205.4,43.7v1.7H201v-1.2l4-0.5H205.4z M204,34.3c0-3.2,0-6.4-0.1-9.5h2.9
	c-0.1,3.1-0.1,6.3-0.1,9.5v1.1c0,3.6,0,6.8,0.1,10h-2.9c0.1-3.1,0.1-6.3,0.1-9.5V34.3z M205.4,34h3c3.8,0,5.4-1.2,5.4-4
	s-1.6-3.8-4.8-3.8h-3.7v-1.4h4.6c4.2,0,6.7,2.1,6.7,5c0,2.4-1.7,4.5-5.8,5v-0.3c4.8,0.4,6.8,2.6,6.8,5.2c0,2.8-2.3,5.6-8.1,5.6h-4.1
	v-1.4h3.4c4,0,5.9-1.5,5.9-4.2s-1.9-4.3-6.2-4.3h-3.1L205.4,34z"/>
<path class="st2" d="M219.6,26v-1.2h8.6V26l-4,0.5h-0.6L219.6,26z M223.9,43.7v1.7h-4.3v-1.2l4-0.5H223.9z M222.4,24.8h3
	c-0.1,3.2-0.1,6.4-0.1,9.5v2.2c0,2.6,0,5.8,0.1,8.9h-3c0.1-3.2,0.1-6.4,0.1-9.5v-1.5C222.5,31.1,222.5,27.9,222.4,24.8z M235.2,39.6
	l-0.3,5.8h-11v-1.5h9.9l-1.7,1.5l1.2-5.8H235.2z"/>
<path class="st3" d="M266.4,34.7h-4.6v-4.6c0-0.5-0.4-0.9-0.9-0.9c-0.5,0-0.9,0.4-0.9,0.9v4.6h-4.6c-0.5,0.1-0.9,0.5-0.8,1
	c0,0.4,0.4,0.8,0.8,0.8h4.6v4.6c0,0.5,0.4,0.9,0.9,0.9c0.5,0,0.9-0.4,0.9-0.9c0,0,0,0,0,0v-4.6h4.6c0.5-0.1,0.9-0.5,0.8-1
	C267.2,35.1,266.9,34.8,266.4,34.7L266.4,34.7z"/>
<g>
	<title>Artboard 38</title>
	<path class="st4" d="M274.4,23.8L264,17.9c-1.9-1.1-4.3-1.1-6.3,0l-10.5,5.9c-1.9,1.1-3.1,3.2-3.1,5.5v11.5c0,2.3,1.2,4.4,3.2,5.5
		l10.5,5.9c1.9,1.1,4.3,1.1,6.3,0l10.5-5.9c1.9-1.1,3.1-3.2,3.1-5.5V29.3C277.7,27,276.4,24.9,274.4,23.8z M273.5,40.8
		c0,0.8-0.4,1.5-1.1,1.8l-10.5,5.9c-0.6,0.4-1.4,0.4-2.1,0l-10.5-5.9c-0.7-0.4-1.1-1.1-1.1-1.8V29.3c0-0.8,0.4-1.5,1.1-1.8l10.5-5.9
		c0.6-0.4,1.4-0.4,2.1,0l10.5,5.9c0.7,0.4,1.1,1.1,1.1,1.8V40.8z"/>
	<path class="st4" d="M267.2,32.9H263v-4.2c0-1.2-0.9-2.1-2.1-2.1s-2.1,0.9-2.1,2.1v4.2h-4.2c-1.2,0-2.1,0.9-2.1,2.1
		c0,1.2,0.9,2.1,2.1,2.1h4.2v4.2c0,1.2,0.9,2.1,2.1,2.1s2.1-0.9,2.1-2.1v-4.2h4.2c1.2,0,2.1-0.9,2.1-2.1
		C269.3,33.9,268.4,32.9,267.2,32.9z"/>
</g>
</svg>
