<svg id="Layer_1" data-name="Layer 1" xmlns="http://www.w3.org/2000/svg" viewBox="0 0 277.91 75.33"><defs><style>.cls-1{fill:none;stroke-linecap:round;stroke-linejoin:round;stroke-width:2px;}.cls-1,.cls-2{stroke:#e5e5e5;}.cls-2{fill:#1a1a1a;}.cls-2,.cls-4{stroke-miterlimit:10;}.cls-3{fill:#fff;}.cls-4{fill:#2e91f8;stroke:#2e91f8;}</style></defs><title>banner-light-plus</title><path class="cls-1" d="M59.39,70.25A187.37,187.37,0,0,1,42,86.67a190.29,190.29,0,0,1-17.4-16.42Z" transform="translate(-4.96 -12.33)"/><path class="cls-1" d="M73.54,45.18c.35,4.19-2,9.32-5.56,14.52V57H16v2.65c-3.55-5.19-5.9-10.3-5.55-14.49,0-.25,0-7.7-.05-15.35,8.27,0,15-7.4,14.93-16.5H58.66c0,9.1,6.67,16.5,14.93,16.5C73.56,37.48,73.53,44.93,73.54,45.18Z" transform="translate(-4.96 -12.33)"/><polygon class="cls-1" points="15.55 57.92 15.55 63.95 1 63.95 4.48 57.92 1 51.88 11.05 51.88 11.05 57.92 15.55 57.92"/><polygon class="cls-1" points="69.6 57.92 73.08 63.95 58.53 63.95 58.53 57.92 63.03 57.92 63.03 51.88 73.08 51.88 69.6 57.92"/><rect class="cls-1" x="11.05" y="44.68" width="51.97" height="13.23"/><path class="cls-2" d="M53.43,53.61H30.57a2,2,0,0,1-1.94-1.94V18.92a2,2,0,0,1,1.94-2H53.43a2,2,0,0,1,1.94,2V51.67A2,2,0,0,1,53.43,53.61ZM30.57,17.89a1,1,0,0,0-1,1V51.67a1,1,0,0,0,1,1H53.43a1,1,0,0,0,1-1V18.92a1,1,0,0,0-1-1Z" transform="translate(-4.96 -12.33)"/><path class="cls-2" d="M51.31,26.87H32.69a.43.43,0,0,1-.44-.44V21a.43.43,0,0,1,.44-.44H51.31a.43.43,0,0,1,.44.44v5.35A.46.46,0,0,1,51.31,26.87ZM33.13,26h17.7V21.52H33.13Z" transform="translate(-4.96 -12.33)"/><path class="cls-2" d="M52,50.61H32a.43.43,0,0,1-.44-.44V30.09a.43.43,0,0,1,.44-.44H52a.42.42,0,0,1,.44.44V50.17A.44.44,0,0,1,52,50.61ZM32.4,49.69H51.56V30.53H32.4Z" transform="translate(-4.96 -12.33)"/><path class="cls-2" d="M49.14,35.62H45.33a.43.43,0,0,1-.44-.44.43.43,0,0,1,.44-.44h3.81a.43.43,0,0,1,.44.44A.44.44,0,0,1,49.14,35.62Z" transform="translate(-4.96 -12.33)"/><path class="cls-2" d="M38.67,35.62H34.86a.42.42,0,0,1-.44-.44.43.43,0,0,1,.44-.44h3.81a.43.43,0,0,1,.44.44A.41.41,0,0,1,38.67,35.62Z" transform="translate(-4.96 -12.33)"/><path class="cls-2" d="M36.76,37.53a.43.43,0,0,1-.44-.44V33.28a.44.44,0,0,1,.88,0v3.81A.4.4,0,0,1,36.76,37.53Z" transform="translate(-4.96 -12.33)"/><path class="cls-2" d="M38.12,47.27a.44.44,0,0,1-.33-.14l-2.68-2.68a.42.42,0,0,1,0-.62.43.43,0,0,1,.63,0l2.67,2.71a.42.42,0,0,1,0,.62A.38.38,0,0,1,38.12,47.27Z" transform="translate(-4.96 -12.33)"/><path class="cls-2" d="M35.44,47.27a.44.44,0,0,1-.33-.14.43.43,0,0,1,0-.63l2.68-2.71a.44.44,0,0,1,.62.62l-2.67,2.72A.35.35,0,0,1,35.44,47.27Z" transform="translate(-4.96 -12.33)"/><path class="cls-2" d="M48.7,45.88H44.89a.44.44,0,1,1,0-.88H48.7a.42.42,0,0,1,.44.44A.4.4,0,0,1,48.7,45.88Z" transform="translate(-4.96 -12.33)"/><path class="cls-2" d="M46.84,44.23a.59.59,0,0,0,.4-.18.57.57,0,1,0-.81-.81.59.59,0,0,0,.41,1Z" transform="translate(-4.96 -12.33)"/><path class="cls-2" d="M46.43,47a.57.57,0,1,0,.81.81.57.57,0,0,0-.81-.81Z" transform="translate(-4.96 -12.33)"/><path class="cls-2" d="M52,40.57H32a.43.43,0,0,1-.44-.44.43.43,0,0,1,.44-.44H52a.42.42,0,0,1,.44.44A.43.43,0,0,1,52,40.57Z" transform="translate(-4.96 -12.33)"/><path class="cls-2" d="M42.11,50.61a.43.43,0,0,1-.44-.44V30.09a.44.44,0,0,1,.88,0V50.17A.44.44,0,0,1,42.11,50.61Z" transform="translate(-4.96 -12.33)"/><path class="cls-3" d="M106.1,54.64v1.7l-1.91.43.77-4.56h1.88l-.13,4.46a12.9,12.9,0,0,1-6.21,1.48c-6.22,0-10.4-4.49-10.4-10.77s4.37-10.76,10.37-10.76a11.84,11.84,0,0,1,5.93,1.47l.13,4.46h-1.88L103.88,38l1.91.43v1.88a7.17,7.17,0,0,0-5-2.15c-4.16,0-7.51,3.23-7.51,9.22s3,9.23,7.29,9.23A8.51,8.51,0,0,0,106.1,54.64Z" transform="translate(-4.96 -12.33)"/><path class="cls-3" d="M114.52,49.63a33.1,33.1,0,0,1,4.77-1.29v1.11a27,27,0,0,0-4.12,1.23c-2.77,1.07-3.08,2.24-3.08,3.13,0,1.63,1.08,2.28,2.5,2.28,1.07,0,1.69-.4,3.63-1.78l.61-.47.43.65-.89.89c-1.85,1.85-2.89,2.71-4.77,2.71-2.24,0-4.12-1.29-4.12-3.85C109.48,52.52,110.4,51.14,114.52,49.63Zm3.54,5.23v-7c0-3-.86-3.76-2.89-3.76a7,7,0,0,0-2.77.56l1.23-1-.8,2.65c-.28.89-.74,1.38-1.57,1.38a1.25,1.25,0,0,1-1.38-1.23c.58-2.34,2.86-3.78,5.94-3.78s4.7,1.44,4.7,5.32v6.52c0,1.39.43,1.88,1.14,1.88a1.53,1.53,0,0,0,1.2-.68l.61.68A2.85,2.85,0,0,1,120.86,58C119.17,58,118.06,56.77,118.06,54.86Z" transform="translate(-4.96 -12.33)"/><path class="cls-3" d="M127.07,57.69c.07-1.38.1-4.55.1-6.46V49.78c0-1.69,0-2.64-.1-3.87l-2.46-.28V44.55l4.19-1.84.46.31.37,3.56v4.65c0,1.91,0,5.08.09,6.46Zm4.8-1.08v1.08H124.8V56.61l3.38-.61h.62ZM139,48.4v2.83c0,2,0,5.08.09,6.46h-2.65c.07-1.38.1-4.49.1-6.46V48.65c0-2.87-.74-3.79-2.59-3.79-1.54,0-2.8.62-4.55,2.12h-.65V45.6h1.57l-1.32.55a8.37,8.37,0,0,1,6.09-3.44C137.72,42.71,139,44.34,139,48.4Zm-.83,7.6,3.07.61v1.08h-7.07V56.61l3.38-.61Z" transform="translate(-4.96 -12.33)"/><path class="cls-3" d="M144.24,44.8l-3-.52V43.11h7.38v1.17l-3.75.52Zm1-1.69L150,55.63l-1.26,1.6,5-14.12h1.66l-5.6,14.76h-1.26L142.3,43.11Zm8.43,1.69-3.08-.52V43.11h5.85v1.17l-2.16.52Z" transform="translate(-4.96 -12.33)"/><path class="cls-3" d="M162.72,49.63a32.75,32.75,0,0,1,4.77-1.29v1.11a27,27,0,0,0-4.12,1.23c-2.77,1.07-3.08,2.24-3.08,3.13,0,1.63,1.08,2.28,2.49,2.28,1.08,0,1.69-.4,3.63-1.78l.62-.47.43.65-.89.89c-1.85,1.85-2.89,2.71-4.77,2.71-2.25,0-4.12-1.29-4.12-3.85C157.68,52.52,158.6,51.14,162.72,49.63Zm3.54,5.23v-7c0-3-.86-3.76-2.89-3.76a7,7,0,0,0-2.77.56l1.23-1-.8,2.65c-.28.89-.74,1.38-1.57,1.38a1.25,1.25,0,0,1-1.38-1.23c.58-2.34,2.86-3.78,5.93-3.78s4.71,1.44,4.71,5.32v6.52c0,1.39.43,1.88,1.14,1.88a1.53,1.53,0,0,0,1.2-.68l.61.68A2.86,2.86,0,0,1,169.06,58C167.37,58,166.26,56.77,166.26,54.86Z" transform="translate(-4.96 -12.33)"/><path class="cls-3" d="M173.49,56.92l-.13-3.35H175l.83,3.63-1.5-.71V55.44a5.83,5.83,0,0,0,3.78,1.27c2.37,0,3.48-1,3.48-2.37s-.93-2-2.86-2.71l-1.42-.52c-2.25-.83-3.72-2-3.72-4.13s1.88-4.27,5.29-4.27A7.87,7.87,0,0,1,183.15,44L183,47.08h-1.54L180.87,44l1.11.49v.8a5,5,0,0,0-3.14-1.17c-1.91,0-2.89.83-2.89,2.13s.77,1.9,2.86,2.67l.92.34c3.08,1.14,4.25,2.58,4.25,4.49,0,2.28-2,4.37-5.94,4.37A9.34,9.34,0,0,1,173.49,56.92Z" transform="translate(-4.96 -12.33)"/><path class="cls-3" d="M202.68,54.64v1.7l-1.91.43.77-4.56h1.88l-.13,4.46a12.87,12.87,0,0,1-6.21,1.48c-6.21,0-10.4-4.49-10.4-10.77s4.37-10.76,10.37-10.76A11.9,11.9,0,0,1,203,38.09l.12,4.46h-1.88L200.46,38l1.91.43v1.88a7.17,7.17,0,0,0-5-2.15c-4.16,0-7.51,3.23-7.51,9.22s3,9.23,7.29,9.23A8.51,8.51,0,0,0,202.68,54.64Z" transform="translate(-4.96 -12.33)"/><path class="cls-3" d="M206,38.31V37.08h4.31v1.69H210ZM210.34,56v1.69H206V56.46l4-.46ZM209,46.62c0-3.17,0-6.37-.09-9.54h2.95c-.09,3.11-.09,6.31-.09,9.54v1.07c0,3.63,0,6.83.09,10h-2.95c.09-3.11.09-6.31.09-9.54Zm1.39-.28h3c3.78,0,5.42-1.2,5.42-4s-1.64-3.82-4.8-3.82h-3.66V37.08h4.55c4.21,0,6.67,2.09,6.67,5,0,2.4-1.66,4.53-5.75,5v-.28c4.8.4,6.77,2.56,6.77,5.2,0,2.8-2.31,5.63-8.12,5.63h-4.12V56.27h3.38c4,0,5.94-1.5,5.94-4.21s-1.88-4.31-6.19-4.31h-3.13Z" transform="translate(-4.96 -12.33)"/><path class="cls-3" d="M224.58,38.31V37.08h8.61v1.23l-4,.46h-.61ZM228.88,56v1.69h-4.3V56.46l4-.46Zm-1.47-18.92h3c-.09,3.17-.09,6.37-.09,9.54v2.15c0,2.61,0,5.81.09,8.92h-3c.09-3.17.09-6.37.09-9.54V46.62C227.5,43.39,227.5,40.19,227.41,37.08Zm12.76,14.83-.3,5.78h-11V56.15h9.91l-1.69,1.54,1.23-5.78Z" transform="translate(-4.96 -12.33)"/><path class="cls-4" d="M265.88,31.48A16.49,16.49,0,1,0,282.37,48,16.51,16.51,0,0,0,265.88,31.48Zm0,31.14A14.65,14.65,0,1,1,280.53,48,14.66,14.66,0,0,1,265.88,62.62Z" transform="translate(-4.96 -12.33)"/><path class="cls-4" d="M271.38,47.05H266.8V42.47a.92.92,0,0,0-1.84,0v4.58h-4.58a.92.92,0,0,0,0,1.83H265v4.58a.92.92,0,1,0,1.84,0V48.88h4.58a.92.92,0,0,0,0-1.83Z" transform="translate(-4.96 -12.33)"/></svg>