<?xml version="1.0" encoding="utf-8"?>
<!-- Generator: Adobe Illustrator 23.1.1, SVG Export Plug-In . SVG Version: 6.00 Build 0)  -->
<svg version="1.1" id="Layer_1" xmlns="http://www.w3.org/2000/svg" xmlns:xlink="http://www.w3.org/1999/xlink" x="0px" y="0px"
	 viewBox="0 0 100 100" style="enable-background:new 0 0 100 100;" xml:space="preserve">
<style type="text/css">
	.st0{fill:#2E91F8;stroke:#2E91F8;stroke-width:3;stroke-miterlimit:10;}
</style>
<path class="st0" d="M50,5C25.2,5,5,25.2,5,50s20.2,45,45,45s45-20.2,45-45S74.8,5,50,5z M50,90c-22.1,0-40-17.9-40-40
	s17.9-40,40-40s40,17.9,40,40S72.1,90,50,90z"/>
<path class="st0" d="M65,47.5H52.5V35c0-1.4-1.1-2.5-2.5-2.5s-2.5,1.1-2.5,2.5v12.5H35c-1.4,0-2.5,1.1-2.5,2.5s1.1,2.5,2.5,2.5h12.5
	V65c0,1.4,1.1,2.5,2.5,2.5s2.5-1.1,2.5-2.5V52.5H65c1.4,0,2.5-1.1,2.5-2.5S66.4,47.5,65,47.5z"/>
</svg>
