<?xml version="1.0" encoding="utf-8"?>
<!-- Generator: Adobe Illustrator 23.1.1, SVG Export Plug-In . SVG Version: 6.00 Build 0)  -->
<svg version="1.1" id="Layer_1" xmlns="http://www.w3.org/2000/svg" xmlns:xlink="http://www.w3.org/1999/xlink" x="0px" y="0px"
	 viewBox="0 0 100 100" style="enable-background:new 0 0 100 100;" xml:space="preserve">
<style type="text/css">
	.st0{fill:#2E91F8;}
</style>
<title>Artboard 38</title>
<path class="st0" d="M66.1,36.6l-12.5-7c-2.3-1.3-5.2-1.3-7.5,0l-12.5,7C31.4,38,30,40.5,30,43.1v13.8c0,2.7,1.5,5.2,3.8,6.5l12.5,7
	c2.3,1.3,5.2,1.3,7.5,0l12.5-7c2.3-1.4,3.7-3.9,3.6-6.5V43.1C70,40.4,68.5,37.9,66.1,36.6z M65,56.9c0,0.9-0.5,1.7-1.3,2.2l-12.5,7
	c-0.8,0.4-1.7,0.4-2.5,0l-12.5-7c-0.8-0.4-1.3-1.3-1.3-2.2V43.1c0-0.9,0.5-1.7,1.3-2.2l12.5-7c0.8-0.4,1.7-0.4,2.5,0l12.5,7
	c0.8,0.4,1.3,1.3,1.3,2.2V56.9z"/>
<path class="st0" d="M57.5,47.5h-5v-5c0-1.4-1.1-2.5-2.5-2.5s-2.5,1.1-2.5,2.5v5h-5c-1.4,0-2.5,1.1-2.5,2.5s1.1,2.5,2.5,2.5h5v5
	c0,1.4,1.1,2.5,2.5,2.5s2.5-1.1,2.5-2.5v-5h5c1.4,0,2.5-1.1,2.5-2.5S58.9,47.5,57.5,47.5z"/>
</svg>
