<?xml version="1.0" encoding="utf-8"?>
<!-- Generator: Adobe Illustrator 23.1.1, SVG Export Plug-In . SVG Version: 6.00 Build 0)  -->
<svg version="1.1" id="Layer_1" xmlns="http://www.w3.org/2000/svg" xmlns:xlink="http://www.w3.org/1999/xlink" x="0px" y="0px"
	 viewBox="0 0 100 100" style="enable-background:new 0 0 100 100;" xml:space="preserve">
<style type="text/css">
	.st0{fill:#2E91F8;}
</style>
<title>Artboard 38</title>
<path class="st0" d="M87.7,18.7L58.5,2.3c-5.4-3.1-12.1-3.1-17.5,0L11.9,18.7c-5.3,3.2-8.6,9-8.5,15.2V66c0,6.3,3.5,12.1,9,15.2
	l29.2,16.4c5.4,3.1,12.1,3.1,17.5,0l29.2-16.4c5.3-3.2,8.6-9,8.5-15.2V34C96.6,27.6,93.2,21.8,87.7,18.7z M85,66
	c0,2.1-1.2,4.1-3,5.1L52.8,87.5c-1.8,1-4,1-5.8,0L17.8,71.1c-1.9-1-3-3-3-5.1V34c0-2.1,1.2-4.1,3-5.1L47,12.5c1.8-1,4-1,5.8,0
	L82,28.9c1.9,1,3,3,3,5.1V66z"/>
<path class="st0" d="M67.5,44.2H55.8V32.5c0-3.2-2.6-5.8-5.8-5.8s-5.8,2.6-5.8,5.8v11.7H32.5c-3.2,0-5.8,2.6-5.8,5.8
	s2.6,5.8,5.8,5.8h11.7v11.7c0,3.2,2.6,5.8,5.8,5.8s5.8-2.6,5.8-5.8V55.8h11.7c3.2,0,5.8-2.6,5.8-5.8S70.7,44.2,67.5,44.2z"/>
</svg>
